<svg width="593" height="563" viewBox="0 0 593 563" fill="none" xmlns="http://www.w3.org/2000/svg">
<circle opacity="0.05" cx="413.5" cy="165.5" r="119.5" fill="#191919"/>
<path d="M296.7 562.6C245.1 562.6 199.52 554.287 159.96 537.66C120.973 520.46 90.3 495.52 67.94 462.84C45.58 429.587 34.4 388.88 34.4 340.72V0.159954H196.08V323.52C196.08 391.173 229.62 425 296.7 425C328.807 425 353.46 416.687 370.66 400.06C387.86 383.433 396.46 357.92 396.46 323.52V0.159954H558.14V340.72C558.14 388.88 546.96 429.587 524.6 462.84C502.813 495.52 472.14 520.46 432.58 537.66C393.593 554.287 348.3 562.6 296.7 562.6Z" fill="#D9D9D9"/>
<path d="M292.32 296.12C292.32 298.957 291.637 301.208 290.272 302.872C288.885 304.515 286.88 305.336 284.256 305.336H271.392V301.016H283.936C285.515 301.016 286.699 300.589 287.488 299.736C288.256 298.883 288.64 297.677 288.64 296.12C288.64 294.563 288.256 293.368 287.488 292.536C286.699 291.683 285.515 291.256 283.936 291.256H271.392V286.936H284.256C286.88 286.936 288.885 287.757 290.272 289.4C291.637 291.043 292.32 293.283 292.32 296.12ZM298.912 283.457H276.832V279.713L278.24 279.489C277.685 278.828 277.259 278.103 276.96 277.313C276.661 276.524 276.512 275.596 276.512 274.529C276.512 272.311 277.12 270.604 278.336 269.409C279.531 268.193 281.493 267.585 284.224 267.585C286.955 267.585 288.992 268.236 290.336 269.537C291.659 270.817 292.32 272.567 292.32 274.785C292.32 276.492 291.936 277.943 291.168 279.137H298.912V283.457ZM289.152 275.873C289.152 274.593 288.757 273.623 287.968 272.961C287.179 272.3 285.941 271.969 284.256 271.969C282.635 271.969 281.472 272.268 280.768 272.865C280.043 273.463 279.68 274.423 279.68 275.745C279.68 277.068 280.139 278.199 281.056 279.137H288C288.341 278.689 288.619 278.22 288.832 277.729C289.045 277.217 289.152 276.599 289.152 275.873ZM292 264.582H276.832V260.582L278.4 260.39C277.973 259.708 277.589 258.865 277.248 257.862C276.885 256.838 276.64 255.836 276.512 254.854H279.776C279.861 255.43 279.989 256.06 280.16 256.742C280.331 257.425 280.523 258.076 280.736 258.694C280.949 259.313 281.173 259.836 281.408 260.262H292V264.582ZM292.32 248.845C292.32 249.805 292.149 250.701 291.808 251.533C291.445 252.344 290.923 253.005 290.24 253.517C289.536 254.008 288.661 254.253 287.616 254.253C286.123 254.253 284.928 253.731 284.032 252.685C283.136 251.619 282.688 250.051 282.688 247.981V243.501H282.272C281.333 243.501 280.672 243.768 280.288 244.301C279.904 244.813 279.712 245.859 279.712 247.438C279.712 249.165 279.979 250.829 280.512 252.429H277.472C277.195 251.725 276.971 250.872 276.8 249.869C276.608 248.845 276.512 247.736 276.512 246.541C276.512 244.259 276.981 242.499 277.92 241.261C278.837 240.003 280.32 239.373 282.368 239.373H292V243.117L290.624 243.341C291.157 243.939 291.573 244.675 291.872 245.549C292.171 246.424 292.32 247.523 292.32 248.845ZM289.472 247.661C289.472 246.701 289.312 245.869 288.992 245.165C288.672 244.461 288.267 243.907 287.776 243.501H285.376V247.885C285.376 249.571 286.069 250.413 287.456 250.413C288.8 250.413 289.472 249.496 289.472 247.661ZM274.048 234.839H270.656V230.135H274.048V234.839ZM292 234.487H280.032V236.759L276.832 236.375V230.167H292V234.487ZM292.32 221.144C292.32 222.275 292.235 223.352 292.064 224.376C291.915 225.4 291.723 226.222 291.488 226.84H287.904C288.203 226.094 288.437 225.251 288.608 224.312C288.757 223.374 288.832 222.51 288.832 221.72C288.832 220.654 288.768 219.907 288.64 219.48C288.512 219.032 288.224 218.808 287.776 218.808C287.264 218.808 286.891 219.15 286.656 219.832C286.421 220.494 286.091 221.486 285.664 222.808C285.195 224.195 284.629 225.262 283.968 226.008C283.307 226.755 282.325 227.128 281.024 227.128C279.573 227.128 278.464 226.606 277.696 225.56C276.907 224.494 276.512 222.787 276.512 220.44C276.512 219.502 276.587 218.616 276.736 217.784C276.864 216.952 277.024 216.248 277.216 215.672H280.768C280.491 216.248 280.288 216.91 280.16 217.656C280.011 218.403 279.936 219.096 279.936 219.736C279.936 220.654 280 221.39 280.128 221.944C280.256 222.478 280.533 222.744 280.96 222.744C281.429 222.744 281.76 222.456 281.952 221.88C282.144 221.283 282.432 220.366 282.816 219.128C283.179 217.912 283.573 216.963 284 216.28C284.427 215.598 284.939 215.118 285.536 214.84C286.112 214.563 286.837 214.424 287.712 214.424C290.784 214.424 292.32 216.664 292.32 221.144ZM292.32 203.991C292.32 206.615 291.669 208.695 290.368 210.231C289.045 211.767 287.051 212.535 284.384 212.535C281.973 212.535 280.064 211.895 278.656 210.615C277.227 209.313 276.512 207.383 276.512 204.823C276.512 202.476 277.131 200.684 278.368 199.447C279.584 198.188 281.184 197.559 283.168 197.559H285.92V208.535C287.136 208.3 287.968 207.745 288.416 206.871C288.864 205.975 289.088 204.716 289.088 203.095C289.088 202.284 289.013 201.463 288.864 200.631C288.715 199.777 288.523 199.052 288.288 198.455H291.36C291.68 199.159 291.915 199.98 292.064 200.919C292.235 201.857 292.32 202.881 292.32 203.991ZM283.264 208.535V201.335H282.432C281.557 201.335 280.875 201.591 280.384 202.103C279.872 202.615 279.616 203.479 279.616 204.695C279.616 206.124 279.904 207.127 280.48 207.703C281.056 208.257 281.984 208.535 283.264 208.535ZM292 187.52H271.392V183.168L283.776 177.12L271.392 171.072V166.752H292V171.072H278.592L288.448 175.872V178.368L278.592 183.2H292V187.52ZM292.32 155.209C292.32 157.833 291.669 159.913 290.368 161.449C289.045 162.985 287.051 163.753 284.384 163.753C281.973 163.753 280.064 163.113 278.656 161.833C277.227 160.532 276.512 158.601 276.512 156.041C276.512 153.695 277.131 151.903 278.368 150.665C279.584 149.407 281.184 148.778 283.168 148.778H285.92V159.753C287.136 159.519 287.968 158.964 288.416 158.089C288.864 157.193 289.088 155.935 289.088 154.313C289.088 153.503 289.013 152.681 288.864 151.849C288.715 150.996 288.523 150.271 288.288 149.673H291.36C291.68 150.377 291.915 151.199 292.064 152.137C292.235 153.076 292.32 154.1 292.32 155.209ZM283.264 159.753V152.553H282.432C281.557 152.553 280.875 152.809 280.384 153.321C279.872 153.833 279.616 154.697 279.616 155.913C279.616 157.343 279.904 158.345 280.48 158.921C281.056 159.476 281.984 159.753 283.264 159.753ZM292.32 139.434C292.32 140.778 292.085 141.983 291.616 143.05C291.125 144.095 290.336 144.916 289.248 145.514C288.139 146.111 286.677 146.41 284.864 146.41C283.051 146.41 281.525 146.079 280.288 145.418C279.051 144.756 278.112 143.871 277.472 142.762C276.832 141.652 276.512 140.436 276.512 139.114C276.512 137.45 276.896 136.031 277.664 134.858H270.432V130.538H292V134.25L290.592 134.506C291.168 135.167 291.605 135.892 291.904 136.682C292.181 137.45 292.32 138.367 292.32 139.434ZM289.152 138.25C289.152 136.906 288.693 135.775 287.776 134.858H280.864C280.075 135.754 279.68 136.799 279.68 137.994C279.68 140.682 281.408 142.026 284.864 142.026C286.485 142.026 287.605 141.695 288.224 141.034C288.843 140.372 289.152 139.444 289.152 138.25ZM274.048 125.839H270.656V121.135H274.048V125.839ZM292 125.487H280.032V127.759L276.832 127.375V121.167H292V125.487ZM292.32 112.72C292.32 113.68 292.149 114.576 291.808 115.408C291.445 116.219 290.923 116.88 290.24 117.392C289.536 117.883 288.661 118.128 287.616 118.128C286.123 118.128 284.928 117.606 284.032 116.56C283.136 115.494 282.688 113.926 282.688 111.856V107.376H282.272C281.333 107.376 280.672 107.643 280.288 108.176C279.904 108.688 279.712 109.734 279.712 111.312C279.712 113.04 279.979 114.704 280.512 116.304H277.472C277.195 115.6 276.971 114.747 276.8 113.744C276.608 112.72 276.512 111.611 276.512 110.416C276.512 108.134 276.981 106.374 277.92 105.136C278.837 103.878 280.32 103.248 282.368 103.248H292V106.992L290.624 107.216C291.157 107.814 291.573 108.55 291.872 109.424C292.171 110.299 292.32 111.398 292.32 112.72ZM289.472 111.536C289.472 110.576 289.312 109.744 288.992 109.04C288.672 108.336 288.267 107.782 287.776 107.376H285.376V111.76C285.376 113.446 286.069 114.288 287.456 114.288C288.8 114.288 289.472 113.371 289.472 111.536Z" fill="#191919"/>
</svg>
