<svg width="155" height="43" viewBox="0 0 155 43" fill="none" xmlns="http://www.w3.org/2000/svg">
<path d="M1.06934 21V20.3408L3.3252 20.1943V0.902344L1.06934 0.755859V0.0966797H8.90625C9.74609 0.0966797 10.5078 0.135742 11.1914 0.213867C11.8848 0.291992 12.5684 0.438477 13.2422 0.65332C13.916 0.858398 14.4775 1.13184 14.9268 1.47363C15.3857 1.81543 15.752 2.26953 16.0254 2.83594C16.3086 3.39258 16.4502 4.04688 16.4502 4.79883C16.4502 5.39453 16.3184 5.94629 16.0547 6.4541C15.791 6.95215 15.4541 7.36719 15.0439 7.69922C14.6436 8.03125 14.1748 8.3291 13.6377 8.59277C13.1006 8.84668 12.583 9.04199 12.085 9.17871C11.5869 9.31543 11.0889 9.41797 10.5908 9.48633V9.54492C11.5771 9.54492 12.4854 9.66211 13.3154 9.89648C14.1455 10.1211 14.8682 10.458 15.4834 10.9072C16.1084 11.3564 16.5967 11.9473 16.9482 12.6797C17.2998 13.4023 17.4756 14.2275 17.4756 15.1553C17.4756 15.9951 17.3242 16.752 17.0215 17.4258C16.7188 18.0898 16.3135 18.6416 15.8057 19.0811C15.2979 19.5205 14.6973 19.8867 14.0039 20.1797C13.3203 20.4727 12.6074 20.6826 11.8652 20.8096C11.123 20.9365 10.3467 21 9.53613 21H1.06934ZM7.0752 20.0479C7.60254 20.1455 8.11035 20.1943 8.59863 20.1943C10.1514 20.1943 11.3672 19.7451 12.2461 18.8467C13.1348 17.9482 13.5791 16.7275 13.5791 15.1846C13.5791 13.5342 13.1201 12.2744 12.2021 11.4053C11.2939 10.5264 10.0342 10.0869 8.42285 10.0869C7.96387 10.0869 7.51465 10.1211 7.0752 10.1895V20.0479ZM7.0752 9.19336C7.48535 9.25195 7.86133 9.28125 8.20312 9.28125C11.1621 9.28125 12.6416 7.81641 12.6416 4.88672C12.6416 3.63672 12.3096 2.66016 11.6455 1.95703C10.9814 1.25391 9.96582 0.902344 8.59863 0.902344C8.11035 0.902344 7.60254 0.951172 7.0752 1.04883V9.19336ZM19.6729 21V20.3408L21.9287 20.1943V0.902344L19.6729 0.755859V0.0966797H34.1016L34.248 6.05859H33.6328C33.5156 5.39453 33.3887 4.83301 33.252 4.37402C33.125 3.90527 32.9395 3.43652 32.6953 2.96777C32.4512 2.49902 32.1631 2.12793 31.8311 1.85449C31.5088 1.57129 31.0889 1.3418 30.5713 1.16602C30.0635 0.990234 29.4727 0.902344 28.7988 0.902344C27.9688 0.902344 26.9287 0.951172 25.6787 1.04883V9.75C25.9717 9.7793 26.5039 9.79395 27.2754 9.79395C28.3008 9.79395 29.0332 9.54492 29.4727 9.04688C29.9121 8.53906 30.1318 7.62109 30.1318 6.29297H30.9375V14.1592H30.1318C30.1318 12.8311 29.9072 11.9082 29.458 11.3906C29.0186 10.8633 28.291 10.5996 27.2754 10.5996C26.5234 10.5996 25.9912 10.6143 25.6787 10.6436V20.0479C26.9287 20.1455 28.1689 20.1943 29.3994 20.1943C29.9756 20.1943 30.4834 20.1504 30.9229 20.0625C31.3623 19.9648 31.7432 19.8086 32.0654 19.5938C32.3877 19.3789 32.6611 19.1396 32.8857 18.876C33.1104 18.6025 33.3057 18.2559 33.4717 17.8359C33.6475 17.416 33.7891 16.9961 33.8965 16.5762C34.0039 16.1562 34.1162 15.6387 34.2334 15.0234H34.8633L34.7021 21H19.6729ZM37.3682 12.3281V10.7168H44.8682V12.3281H37.3682ZM47.6514 21V20.3408L49.9072 20.1943V0.902344L47.6514 0.755859V0.0966797H55.6055C56.6797 0.0966797 57.6709 0.213867 58.5791 0.448242C59.4971 0.672852 60.3223 1.01953 61.0547 1.48828C61.7871 1.94727 62.3584 2.56738 62.7686 3.34863C63.1885 4.12012 63.3984 5.01367 63.3984 6.0293C63.3984 6.9668 63.2373 7.81152 62.915 8.56348C62.6025 9.31543 62.1777 9.94531 61.6406 10.4531C61.1035 10.9609 60.4541 11.3857 59.6924 11.7275C58.9404 12.0596 58.1396 12.3037 57.29 12.46C56.4502 12.6064 55.5566 12.6797 54.6094 12.6797C54.4043 12.6797 54.0869 12.6699 53.6572 12.6504V20.1943L55.9131 20.3408V21H47.6514ZM53.6572 11.8154C53.999 11.8447 54.3457 11.8594 54.6973 11.8594C57.9004 11.8594 59.502 9.90625 59.502 6C59.502 5.05273 59.3945 4.24707 59.1797 3.58301C58.9648 2.90918 58.6523 2.3916 58.2422 2.03027C57.8418 1.65918 57.3926 1.39551 56.8945 1.23926C56.4062 1.07324 55.8447 0.990234 55.21 0.990234C54.7314 0.990234 54.2139 1.0293 53.6572 1.10742V11.8154ZM65.1709 21V20.3408L67.4268 20.1943V0.902344L65.1709 0.755859V0.0966797H72.9785C74.0625 0.0966797 75.0391 0.189453 75.9082 0.375C76.7871 0.560547 77.5684 0.853516 78.252 1.25391C78.9453 1.6543 79.4775 2.19629 79.8486 2.87988C80.2295 3.55371 80.4199 4.35449 80.4199 5.28223C80.4199 6.95215 79.8584 8.25586 78.7354 9.19336C77.6123 10.1211 76.0938 10.7217 74.1797 10.9951V11.0244C75 11.0342 75.708 11.166 76.3037 11.4199C76.9092 11.6738 77.3877 12.001 77.7393 12.4014C78.1006 12.792 78.4424 13.2998 78.7646 13.9248C78.9795 14.3545 79.2822 15.0137 79.6729 15.9023C80.0732 16.7812 80.4688 17.5625 80.8594 18.2461C81.1719 18.8027 81.499 19.2324 81.8408 19.5352C82.1826 19.8379 82.4707 20.0234 82.7051 20.0918C82.9395 20.1602 83.208 20.1943 83.5107 20.1943V21H81.0791C80.3369 21 79.751 20.9561 79.3213 20.8682C78.8916 20.7705 78.4619 20.5459 78.0322 20.1943C77.6123 19.8428 77.2363 19.3594 76.9043 18.7441C76.5723 18.1191 76.0059 16.8203 75.2051 14.8477C75.0879 14.5547 74.917 14.1787 74.6924 13.7197C74.4775 13.251 74.2871 12.8994 74.1211 12.665C73.9648 12.4209 73.7744 12.167 73.5498 11.9033C73.335 11.6396 73.1104 11.4541 72.876 11.3467C72.6514 11.2295 72.4121 11.1709 72.1582 11.1709C71.7285 11.1709 71.4014 11.1758 71.1768 11.1855V20.1943L73.4326 20.3408V21H65.1709ZM71.1768 10.3506C71.2842 10.3604 71.4844 10.3652 71.7773 10.3652C73.5156 10.3652 74.7363 9.94531 75.4395 9.10547C76.1523 8.25586 76.5088 6.99121 76.5088 5.31152C76.5088 4.47168 76.4062 3.75879 76.2012 3.17285C76.0059 2.58691 75.7227 2.13281 75.3516 1.81055C74.9805 1.48828 74.5703 1.25879 74.1211 1.12207C73.6719 0.985352 73.1592 0.916992 72.583 0.916992C72.2021 0.916992 71.7334 0.956055 71.1768 1.03418V10.3506ZM84.0674 21V20.3408L86.3232 20.1943V0.902344L84.0674 0.755859V0.0966797H98.4961L98.6426 6.05859H98.0273C97.9102 5.39453 97.7832 4.83301 97.6465 4.37402C97.5195 3.90527 97.334 3.43652 97.0898 2.96777C96.8457 2.49902 96.5576 2.12793 96.2256 1.85449C95.9033 1.57129 95.4834 1.3418 94.9658 1.16602C94.458 0.990234 93.8672 0.902344 93.1934 0.902344C92.3633 0.902344 91.3232 0.951172 90.0732 1.04883V9.75C90.3662 9.7793 90.8984 9.79395 91.6699 9.79395C92.6953 9.79395 93.4277 9.54492 93.8672 9.04688C94.3066 8.53906 94.5264 7.62109 94.5264 6.29297H95.332V14.1592H94.5264C94.5264 12.8311 94.3018 11.9082 93.8525 11.3906C93.4131 10.8633 92.6855 10.5996 91.6699 10.5996C90.918 10.5996 90.3857 10.6143 90.0732 10.6436V20.0479C91.3232 20.1455 92.5635 20.1943 93.7939 20.1943C94.3701 20.1943 94.8779 20.1504 95.3174 20.0625C95.7568 19.9648 96.1377 19.8086 96.46 19.5938C96.7822 19.3789 97.0557 19.1396 97.2803 18.876C97.5049 18.6025 97.7002 18.2559 97.8662 17.8359C98.042 17.416 98.1836 16.9961 98.291 16.5762C98.3984 16.1562 98.5107 15.6387 98.6279 15.0234H99.2578L99.0967 21H84.0674ZM101.602 7.27441L101.748 0.0966797H117.744L117.891 7.25977H117.085C116.948 6.50781 116.826 5.90234 116.719 5.44336C116.621 4.98438 116.499 4.50098 116.353 3.99316C116.206 3.48535 116.055 3.08984 115.898 2.80664C115.742 2.52344 115.552 2.24023 115.327 1.95703C115.103 1.67383 114.844 1.46875 114.551 1.3418C114.268 1.20508 113.936 1.09766 113.555 1.01953C113.174 0.931641 112.734 0.887695 112.236 0.887695C112.197 0.887695 112.114 0.892578 111.987 0.902344C111.87 0.902344 111.763 0.902344 111.665 0.902344V20.1943L113.936 20.3408V21H105.674V20.3408L107.915 20.1943L107.827 0.916992C107.729 0.916992 107.617 0.916992 107.49 0.916992C107.373 0.907227 107.295 0.902344 107.256 0.902344C106.816 0.902344 106.426 0.926758 106.084 0.975586C105.742 1.02441 105.43 1.11719 105.146 1.25391C104.873 1.39062 104.634 1.53711 104.429 1.69336C104.224 1.84961 104.033 2.07422 103.857 2.36719C103.682 2.66016 103.53 2.94336 103.403 3.2168C103.286 3.49023 103.159 3.86621 103.022 4.34473C102.896 4.81348 102.69 5.79004 102.407 7.27441H101.602ZM119.648 7.27441L119.795 0.0966797H135.791L135.938 7.25977H135.132C134.995 6.50781 134.873 5.90234 134.766 5.44336C134.668 4.98438 134.546 4.50098 134.399 3.99316C134.253 3.48535 134.102 3.08984 133.945 2.80664C133.789 2.52344 133.599 2.24023 133.374 1.95703C133.149 1.67383 132.891 1.46875 132.598 1.3418C132.314 1.20508 131.982 1.09766 131.602 1.01953C131.221 0.931641 130.781 0.887695 130.283 0.887695C130.244 0.887695 130.161 0.892578 130.034 0.902344C129.917 0.902344 129.81 0.902344 129.712 0.902344V20.1943L131.982 20.3408V21H123.721V20.3408L125.962 20.1943L125.874 0.916992C125.776 0.916992 125.664 0.916992 125.537 0.916992C125.42 0.907227 125.342 0.902344 125.303 0.902344C124.863 0.902344 124.473 0.926758 124.131 0.975586C123.789 1.02441 123.477 1.11719 123.193 1.25391C122.92 1.39062 122.681 1.53711 122.476 1.69336C122.271 1.84961 122.08 2.07422 121.904 2.36719C121.729 2.66016 121.577 2.94336 121.45 3.2168C121.333 3.49023 121.206 3.86621 121.069 4.34473C120.942 4.81348 120.737 5.79004 120.454 7.27441H119.648ZM136.274 0.755859V0.0966797H144.873V0.755859L142.603 0.902344L147.539 9.79395H147.612L151.743 0.902344L149.678 0.755859V0.0966797H154.556V0.755859L152.739 0.902344L148.169 10.7021V20.1943L150.425 20.3408V21H142.178V20.3408L144.419 20.1943V11.5664L138.252 0.902344L136.274 0.755859ZM0.499023 42V41.6924L1.55176 41.624V32.6211L0.499023 32.5527V32.2451H3.4248L6.27539 39.5186H6.28906L8.96875 32.2451H11.7715V32.5527L10.7188 32.6211V41.624L11.7715 41.6924V42H7.91602V41.6924L8.96875 41.624L8.98242 33.2637H8.96875L5.72168 42.1367H5.46875L1.85938 32.9424H1.8457L1.94824 41.624L2.98047 41.6924V42H0.499023ZM12.8379 37.1533C12.8379 36.2145 13.0065 35.3577 13.3438 34.583C13.681 33.8083 14.1755 33.1862 14.8271 32.7168C15.4834 32.2428 16.2376 32.0059 17.0898 32.0059C18.375 32.0059 19.4095 32.4593 20.1934 33.3662C20.9818 34.2731 21.376 35.4626 21.376 36.9346C21.376 37.4723 21.3213 37.9941 21.2119 38.5C21.1071 39.0059 20.9408 39.4867 20.7129 39.9424C20.485 40.3936 20.207 40.79 19.8789 41.1318C19.5553 41.4691 19.1566 41.738 18.6826 41.9385C18.2087 42.139 17.6914 42.2393 17.1309 42.2393C15.7956 42.2393 14.7451 41.7744 13.9795 40.8447C13.2184 39.915 12.8379 38.6846 12.8379 37.1533ZM14.6699 37.0029C14.6699 37.9007 14.7588 38.7119 14.9365 39.4365C15.1143 40.1566 15.3877 40.7422 15.7568 41.1934C16.1305 41.64 16.5749 41.8633 17.0898 41.8633C17.8555 41.8633 18.4548 41.4189 18.8877 40.5303C19.3252 39.6416 19.5439 38.4613 19.5439 36.9893C19.5439 35.458 19.3298 34.3073 18.9014 33.5371C18.4775 32.7669 17.8874 32.3818 17.1309 32.3818C16.8665 32.3818 16.6136 32.4365 16.3721 32.5459C16.1351 32.6553 15.9118 32.8307 15.7021 33.0723C15.4925 33.3138 15.3125 33.6123 15.1621 33.9678C15.0117 34.3187 14.891 34.7539 14.7998 35.2734C14.7132 35.793 14.6699 36.3695 14.6699 37.0029ZM22.4287 42V41.6924L23.4814 41.624V32.6211L22.4287 32.5527V32.2451H25.874C26.7992 32.2451 27.5921 32.3613 28.2529 32.5938C28.9137 32.8262 29.4355 33.1634 29.8184 33.6055C30.2057 34.0475 30.486 34.5602 30.6592 35.1436C30.8369 35.7269 30.9258 36.4014 30.9258 37.167C30.9258 37.7184 30.8688 38.2334 30.7549 38.7119C30.641 39.1859 30.4587 39.6279 30.208 40.0381C29.9619 40.4437 29.652 40.7923 29.2783 41.084C28.9092 41.3711 28.4535 41.5967 27.9111 41.7607C27.3734 41.9202 26.7695 42 26.0996 42H22.4287ZM25.2314 41.5557C25.4775 41.6012 25.7008 41.624 25.9014 41.624C26.3662 41.624 26.7786 41.5488 27.1387 41.3984C27.5033 41.248 27.8063 41.0407 28.0479 40.7764C28.2939 40.5075 28.4967 40.1816 28.6562 39.7988C28.8158 39.4115 28.9297 38.9922 28.998 38.541C29.071 38.0898 29.1074 37.5954 29.1074 37.0576C29.1074 36.529 29.0824 36.0573 29.0322 35.6426C28.9821 35.2279 28.8864 34.8245 28.7451 34.4326C28.6084 34.0407 28.4261 33.7171 28.1982 33.4619C27.9704 33.2067 27.6696 33.0039 27.2959 32.8535C26.9222 32.6986 26.4847 32.6211 25.9834 32.6211C25.7282 32.6211 25.4775 32.6439 25.2314 32.6895V41.5557ZM31.999 42V41.6924L33.0518 41.624V32.6211L31.999 32.5527V32.2451H38.7324L38.8008 35.0273H38.5137C38.459 34.7174 38.3997 34.4554 38.3359 34.2412C38.2767 34.0225 38.1901 33.8037 38.0762 33.585C37.9622 33.3662 37.8278 33.193 37.6729 33.0654C37.5225 32.9333 37.3265 32.8262 37.085 32.7441C36.848 32.6621 36.5723 32.6211 36.2578 32.6211C35.8704 32.6211 35.3851 32.6439 34.8018 32.6895V36.75C34.9385 36.7637 35.1868 36.7705 35.5469 36.7705C36.0254 36.7705 36.3672 36.6543 36.5723 36.4219C36.7773 36.1849 36.8799 35.7565 36.8799 35.1367H37.2559V38.8076H36.8799C36.8799 38.1878 36.7751 37.7572 36.5654 37.5156C36.3604 37.2695 36.0208 37.1465 35.5469 37.1465C35.196 37.1465 34.9476 37.1533 34.8018 37.167V41.5557C35.3851 41.6012 35.9639 41.624 36.5381 41.624C36.807 41.624 37.0439 41.6035 37.249 41.5625C37.4541 41.5169 37.6318 41.444 37.7822 41.3438C37.9326 41.2435 38.0602 41.1318 38.165 41.0088C38.2699 40.8812 38.361 40.7194 38.4385 40.5234C38.5205 40.3275 38.5866 40.1315 38.6367 39.9355C38.6868 39.7396 38.7393 39.498 38.7939 39.2109H39.0879L39.0127 42H31.999ZM40.2705 42V41.6924L41.3232 41.624V32.6211L40.2705 32.5527V32.2451H44.126V32.5527L43.0732 32.6211V41.5557C43.8161 41.6058 44.3242 41.6309 44.5977 41.6309C44.8483 41.6309 45.0671 41.624 45.2539 41.6104C45.4453 41.5967 45.6185 41.5671 45.7734 41.5215C45.9329 41.4759 46.0651 41.4281 46.1699 41.3779C46.2793 41.3278 46.3818 41.2503 46.4775 41.1455C46.5732 41.0361 46.6507 40.9313 46.71 40.8311C46.7692 40.7262 46.8467 40.5257 46.9424 40.2295C47.0381 39.9287 47.1224 39.5892 47.1953 39.2109H47.4277V42H40.2705ZM51.6729 32.3818C51.3447 32.3818 51.0553 32.4206 50.8047 32.498C50.5586 32.5755 50.3512 32.6849 50.1826 32.8262C50.014 32.9674 49.8864 33.1383 49.7998 33.3389C49.7178 33.5348 49.6768 33.7513 49.6768 33.9883C49.6768 34.1569 49.6995 34.3232 49.7451 34.4873C49.7907 34.6514 49.8887 34.82 50.0391 34.9932C50.1895 35.1618 50.4059 35.3372 50.6885 35.5195C50.9756 35.7018 51.3607 35.8978 51.8438 36.1074C52.3997 36.3626 52.8691 36.6019 53.252 36.8252C53.6393 37.0485 53.9538 37.2855 54.1953 37.5361C54.4368 37.7868 54.61 38.0693 54.7148 38.3838C54.8242 38.6937 54.8789 39.0651 54.8789 39.498C54.8789 39.8262 54.8128 40.1543 54.6807 40.4824C54.5485 40.8105 54.348 41.1045 54.0791 41.3643C53.8148 41.624 53.4798 41.8359 53.0742 42C52.6732 42.1595 52.2015 42.2393 51.6592 42.2393C51.0576 42.2393 50.5518 42.1823 50.1416 42.0684C49.7314 41.959 49.401 41.8154 49.1504 41.6377C48.9043 41.46 48.7266 41.2594 48.6172 41.0361C48.5078 40.8083 48.4531 40.5804 48.4531 40.3525C48.4531 40.2021 48.4759 40.0632 48.5215 39.9355C48.5671 39.8034 48.6331 39.6895 48.7197 39.5938C48.8109 39.4935 48.9202 39.416 49.0479 39.3613C49.18 39.3021 49.3281 39.2725 49.4922 39.2725C49.6426 39.2725 49.7793 39.2998 49.9023 39.3545C50.0254 39.4046 50.1279 39.4753 50.21 39.5664C50.2965 39.653 50.3626 39.7578 50.4082 39.8809C50.4583 39.9993 50.4834 40.1292 50.4834 40.2705C50.4834 40.5941 50.39 40.8379 50.2031 41.002C50.0163 41.166 49.7747 41.248 49.4785 41.248V41.2754C49.5104 41.3118 49.5719 41.362 49.6631 41.4258C49.7588 41.4896 49.8887 41.5534 50.0527 41.6172C50.2214 41.681 50.4264 41.738 50.668 41.7881C50.9141 41.8337 51.2035 41.8564 51.5361 41.8564C51.8096 41.8564 52.0807 41.82 52.3496 41.7471C52.623 41.6742 52.8646 41.5693 53.0742 41.4326C53.2884 41.2959 53.4616 41.1296 53.5938 40.9336C53.7259 40.7376 53.792 40.5166 53.792 40.2705C53.792 40.0609 53.7533 39.8649 53.6758 39.6826C53.5983 39.5003 53.4525 39.3158 53.2383 39.1289C53.0241 38.9375 52.7256 38.7347 52.3428 38.5205C51.9645 38.3018 51.4701 38.0557 50.8594 37.7822C50.4082 37.5908 50.0368 37.3812 49.7451 37.1533C49.458 36.9209 49.2301 36.6771 49.0615 36.4219C48.8975 36.1621 48.7835 35.8932 48.7197 35.6152C48.6559 35.3327 48.624 35.0433 48.624 34.7471C48.624 34.3734 48.6924 34.0202 48.8291 33.6875C48.9658 33.3548 49.1641 33.0654 49.4238 32.8193C49.6836 32.5687 50.0026 32.3704 50.3809 32.2246C50.7637 32.0788 51.1989 32.0059 51.6865 32.0059C52.1559 32.0059 52.5638 32.0605 52.9102 32.1699C53.2611 32.2793 53.5505 32.4251 53.7783 32.6074C54.0062 32.7852 54.1771 32.9948 54.291 33.2363C54.4049 33.4733 54.4619 33.7217 54.4619 33.9814C54.4619 34.1182 54.4391 34.2503 54.3936 34.3779C54.348 34.501 54.2819 34.6104 54.1953 34.7061C54.1087 34.7972 54.0016 34.8724 53.874 34.9316C53.7464 34.9863 53.6006 35.0137 53.4365 35.0137C53.2861 35.0137 53.1494 34.9886 53.0264 34.9385C52.9033 34.8883 52.7962 34.82 52.7051 34.7334C52.6185 34.6468 52.5501 34.5443 52.5 34.4258C52.4544 34.3073 52.4316 34.1774 52.4316 34.0361C52.4316 33.8766 52.459 33.7354 52.5137 33.6123C52.5684 33.4847 52.6413 33.3799 52.7324 33.2979C52.8281 33.2113 52.9398 33.1475 53.0674 33.1064C53.195 33.0609 53.3317 33.0381 53.4775 33.0381V33.0107C53.4502 32.9788 53.3955 32.9287 53.3135 32.8604C53.2314 32.7874 53.1175 32.7168 52.9717 32.6484C52.8258 32.5755 52.6458 32.514 52.4316 32.4639C52.2174 32.4092 51.9645 32.3818 51.6729 32.3818ZM58.5293 42V41.6924L59.3564 41.624L62.5898 31.9648H62.8975L66.2402 41.624L67.1426 41.6924V42H63.4854V41.6924L64.4082 41.624L63.6016 39.1699H60.5391L59.7461 41.624L60.6689 41.6924V42H58.5293ZM60.6621 38.7598L63.4512 38.7051L62.084 34.5078H62.0566L60.6621 38.7598ZM67.3887 37.3242C67.3887 36.8457 67.4411 36.3649 67.5459 35.8818C67.6553 35.3942 67.8285 34.918 68.0654 34.4531C68.307 33.9837 68.5964 33.569 68.9336 33.209C69.2754 32.849 69.7015 32.5596 70.2119 32.3408C70.7223 32.1175 71.2829 32.0059 71.8936 32.0059C72.8141 32.0059 73.5752 32.2018 74.1768 32.5938C74.7829 32.9857 75.0859 33.4482 75.0859 33.9814C75.0859 34.2686 74.9948 34.5124 74.8125 34.7129C74.6302 34.9134 74.3796 35.0137 74.0605 35.0137C73.7643 35.0137 73.5228 34.9225 73.3359 34.7402C73.1491 34.5534 73.0557 34.3187 73.0557 34.0361C73.0557 33.7262 73.1536 33.4847 73.3496 33.3115C73.5456 33.1338 73.7962 33.0449 74.1016 33.0449V33.0176C74.0013 32.8991 73.7871 32.7692 73.459 32.6279C73.1354 32.4867 72.7503 32.416 72.3037 32.416C71.6611 32.416 71.1051 32.6165 70.6357 33.0176C70.1663 33.4141 69.8109 33.9632 69.5693 34.665C69.3278 35.3669 69.207 36.1781 69.207 37.0986C69.207 37.4131 69.2161 37.7161 69.2344 38.0078C69.2572 38.2995 69.2982 38.6071 69.3574 38.9307C69.4167 39.2542 69.4919 39.5527 69.583 39.8262C69.6787 40.0996 69.804 40.3639 69.959 40.6191C70.1139 40.8698 70.2939 41.084 70.499 41.2617C70.7041 41.4395 70.9525 41.5807 71.2441 41.6855C71.5358 41.7904 71.8571 41.8428 72.208 41.8428C72.6045 41.8428 73.0283 41.7744 73.4795 41.6377V37.9121L72.4678 37.8369V37.5293H76.0498V37.8369L75.0449 37.9121V41.5352C74.6621 41.7585 74.1813 41.9316 73.6025 42.0547C73.0238 42.1777 72.4336 42.2393 71.832 42.2393C68.8698 42.2393 67.3887 40.6009 67.3887 37.3242ZM76.8428 42V41.6924L77.8955 41.624V32.6211L76.8428 32.5527V32.2451H83.5762L83.6445 35.0273H83.3574C83.3027 34.7174 83.2435 34.4554 83.1797 34.2412C83.1204 34.0225 83.0339 33.8037 82.9199 33.585C82.806 33.3662 82.6715 33.193 82.5166 33.0654C82.3662 32.9333 82.1702 32.8262 81.9287 32.7441C81.6917 32.6621 81.416 32.6211 81.1016 32.6211C80.7142 32.6211 80.2288 32.6439 79.6455 32.6895V36.75C79.7822 36.7637 80.0306 36.7705 80.3906 36.7705C80.8691 36.7705 81.2109 36.6543 81.416 36.4219C81.6211 36.1849 81.7236 35.7565 81.7236 35.1367H82.0996V38.8076H81.7236C81.7236 38.1878 81.6188 37.7572 81.4092 37.5156C81.2041 37.2695 80.8646 37.1465 80.3906 37.1465C80.0397 37.1465 79.7913 37.1533 79.6455 37.167V41.5557C80.2288 41.6012 80.8076 41.624 81.3818 41.624C81.6507 41.624 81.8877 41.6035 82.0928 41.5625C82.2979 41.5169 82.4756 41.444 82.626 41.3438C82.7764 41.2435 82.904 41.1318 83.0088 41.0088C83.1136 40.8812 83.2048 40.7194 83.2822 40.5234C83.3643 40.3275 83.4303 40.1315 83.4805 39.9355C83.5306 39.7396 83.583 39.498 83.6377 39.2109H83.9316L83.8564 42H76.8428ZM85.0869 32.5527V32.2451H86.5498L92.415 39.3545H92.4287L92.333 32.6211L91.2871 32.5527V32.2451H93.8164V32.5527L92.7637 32.6211L92.8389 42.1367H92.4219L86.5566 35.0068H86.543L86.6387 41.624L87.6846 41.6924V42H85.1553V41.6924L86.208 41.624L86.1328 32.6211L85.0869 32.5527ZM94.8555 37.2969C94.8555 36.791 94.9102 36.292 95.0195 35.7998C95.1289 35.3076 95.3021 34.8314 95.5391 34.3711C95.7806 33.9108 96.0745 33.5075 96.4209 33.1611C96.7673 32.8102 97.1956 32.5299 97.7061 32.3203C98.2165 32.1107 98.777 32.0059 99.3877 32.0059C100.099 32.0059 100.725 32.2018 101.268 32.5938C101.81 32.9811 102.081 33.4414 102.081 33.9746C102.081 34.2435 101.994 34.4736 101.821 34.665C101.653 34.8564 101.42 34.9521 101.124 34.9521C100.841 34.9521 100.611 34.8656 100.434 34.6924C100.256 34.5146 100.167 34.2913 100.167 34.0225C100.167 33.7581 100.251 33.5371 100.42 33.3594C100.589 33.1771 100.798 33.0859 101.049 33.0859C101.099 33.0859 101.135 33.0882 101.158 33.0928V33.0654C101.09 32.9378 100.905 32.7943 100.604 32.6348C100.304 32.4753 99.9414 32.3955 99.5176 32.3955C98.6882 32.3955 98.0068 32.8262 97.4736 33.6875C96.9404 34.5488 96.6738 35.6859 96.6738 37.0986C96.6738 37.7048 96.7262 38.279 96.8311 38.8213C96.9359 39.359 97.0908 39.849 97.2959 40.291C97.5055 40.7331 97.7858 41.0863 98.1367 41.3506C98.4876 41.6104 98.8887 41.7402 99.3398 41.7402C99.987 41.7402 100.55 41.5488 101.028 41.166C101.511 40.7786 101.885 40.2842 102.149 39.6826L102.471 39.833C101.819 41.4372 100.723 42.2393 99.1826 42.2393C98.5127 42.2393 97.9202 42.1458 97.4053 41.959C96.8903 41.7721 96.4733 41.526 96.1543 41.2207C95.8398 40.9108 95.5824 40.5371 95.3818 40.0996C95.1813 39.6621 95.0423 39.2178 94.9648 38.7666C94.8919 38.3154 94.8555 37.8255 94.8555 37.2969ZM102.354 32.5527V32.2451H106.367V32.5527L105.308 32.6211L107.611 36.7705H107.646L109.573 32.6211L108.609 32.5527V32.2451H110.886V32.5527L110.038 32.6211L107.905 37.1943V41.624L108.958 41.6924V42H105.109V41.6924L106.155 41.624V37.5977L103.277 32.6211L102.354 32.5527Z" fill="#3A3F42"/>
</svg>
