<?xml version="1.0" encoding="utf-8"?>
<!-- Generator: Adobe Illustrator 21.1.0, SVG Export Plug-In . SVG Version: 6.00 Build 0)  -->
<svg version="1.1" id="Layer_3" xmlns="http://www.w3.org/2000/svg" xmlns:xlink="http://www.w3.org/1999/xlink" x="0px" y="0px"
	 viewBox="0 0 257.2 102.4" style="enable-background:new 0 0 257.2 102.4;" xml:space="preserve">
<style type="text/css">
	.st0{fill:#E0E3E3;}
	.st1{fill:#ECE02A;}
</style>
<g>
	<path class="st0" d="M49,76.9c0,8.9-2.2,15.3-6.7,19.5s-11.4,6.2-20.7,6.2c-3.4,0-6.7-0.3-9.9-0.9s-6.1-1.3-8.8-2.2l2.3-11
		c2.2,0.9,4.7,1.7,7.5,2.2c2.8,0.6,5.8,0.9,9.1,0.9c5.2,0,8.9-1.1,11.1-3.2s3.3-5.3,3.3-9.5v-2.1c-1.3,0.6-3,1.3-5,1.9
		c-2.1,0.6-4.5,1-7.2,1c-3.5,0-6.8-0.6-9.7-1.7s-5.5-2.8-7.6-5s-3.8-5-4.9-8.3C0.6,61.4,0,57.6,0,53.3c0-4,0.6-7.8,1.9-11.2
		c1.2-3.4,3.1-6.3,5.4-8.7c2.4-2.4,5.3-4.3,8.7-5.6c3.4-1.3,7.3-2,11.6-2c4.2,0,8.2,0.3,11.9,1c3.8,0.6,6.9,1.3,9.6,2L49,76.9
		L49,76.9z M13.2,53.3c0,5.5,1.2,9.4,3.6,12c2.4,2.5,5.4,3.8,9.2,3.8c2.1,0,4-0.3,5.8-0.9s3.3-1.2,4.4-2V37.3
		c-0.9-0.2-2.1-0.4-3.4-0.6c-1.3-0.2-3.1-0.3-5.1-0.3c-4.7,0-8.3,1.5-10.7,4.6C14.4,44.2,13.2,48.2,13.2,53.3z"/>
	<path class="st0" d="M77.1,10.6c0,2.4-0.8,4.3-2.3,5.7c-1.6,1.4-3.4,2.1-5.5,2.1c-2.2,0-4.1-0.7-5.6-2.1C62,15,61.2,13,61.2,10.6
		c0-2.5,0.8-4.4,2.3-5.8c1.6-1.4,3.4-2.1,5.6-2.1c2.1,0,4,0.7,5.5,2.1C76.3,6.2,77.1,8.2,77.1,10.6z M75.7,82.5H62.8V26.9h12.9V82.5
		z"/>
	<path class="st0" d="M113.7,0c3,0,5.6,0.3,7.9,0.8s4,1,5.1,1.4l-2.4,10.6c-1.2-0.6-2.6-1-4.2-1.4s-3.3-0.5-5.2-0.5
		c-2.1,0-3.8,0.3-5.2,0.9c-1.4,0.6-2.6,1.4-3.4,2.5c-0.9,1.1-1.5,2.4-1.8,3.9c-0.4,1.5-0.5,3.2-0.5,4.9v3.7h20.2v10.7H104v44.9H91
		V23c0-7.2,1.9-12.8,5.6-16.9C100.4,2,106.1,0,113.7,0z"/>
	<path class="st0" d="M135,12.2l12.9-2.1v16.8h19.8v10.7h-19.8v22.6c0,4.5,0.7,7.7,2.1,9.6c1.4,1.9,3.8,2.9,7.2,2.9
		c2.3,0,4.4-0.2,6.2-0.7s3.2-1,4.3-1.4l2.1,10.2c-1.5,0.6-3.4,1.3-5.8,2s-5.2,1-8.5,1c-4,0-7.3-0.5-9.9-1.6
		c-2.7-1.1-4.8-2.6-6.3-4.6c-1.6-2-2.7-4.5-3.3-7.3c-0.6-2.9-1-6.1-1-9.8V12.2z"/>
	<path class="st0" d="M228.7,26.9c-5.7,21.1-12.4,40.3-20,57.4c-1.4,3.2-2.9,5.9-4.4,8.2c-1.5,2.3-3.2,4.1-5,5.6s-3.9,2.6-6.2,3.2
		c-2.3,0.7-4.9,1-7.9,1c-2,0-4-0.2-5.9-0.6s-3.4-0.9-4.4-1.4l2.3-10.3c2.6,1,5.1,1.5,7.6,1.5c3.3,0,6-0.8,7.8-2.4
		c1.9-1.6,3.5-4.1,5-7.4c-4.1-7.8-8-16.3-11.7-25.5s-7.1-19-10-29.3h13.7c0.7,3,1.6,6.2,2.6,9.7s2.2,7,3.4,10.6s2.5,7.1,3.8,10.7
		c1.3,3.5,2.7,6.8,4.1,9.9c2.3-6.3,4.4-13,6.4-20.1s3.8-14,5.4-20.7L228.7,26.9L228.7,26.9z"/>
	<path class="st1" d="M257.2,71.6c0,3.9-1.3,7-3.9,9.5c-2.6,2.4-5.7,3.7-9.4,3.7c-3.8,0-6.9-1.2-9.5-3.7c-2.6-2.4-3.8-5.6-3.8-9.5
		s1.3-7.1,3.8-9.6c2.6-2.5,5.7-3.7,9.5-3.7c3.7,0,6.8,1.2,9.4,3.7C255.9,64.5,257.2,67.7,257.2,71.6z"/>
</g>
</svg>
